<?xml version="1.0" encoding="UTF-8" standalone="no"?><svg width="148" height="37" viewBox="0 0 148 37" fill="none" xmlns="http://www.w3.org/2000/svg">
<path d="M10.4603 21.1504H7.10055V36.1062H2.18212V21.1504H0V17.2326H2.18212V16.2787C2.18212 13.9621 2.85176 12.2587 4.19105 11.1685C5.53034 10.0783 7.55082 9.56731 10.2525 9.63545V13.6555C9.07484 13.6328 8.25511 13.8258 7.79328 14.2346C7.33146 14.6434 7.10055 15.3816 7.10055 16.449V17.2326H10.4603V21.1504Z" fill="white"/>
<path d="M16.062 14.9841C15.2076 14.9841 14.4918 14.7229 13.9145 14.2006C13.3603 13.6555 13.0832 12.9855 13.0832 12.1905C13.0832 11.3956 13.3603 10.737 13.9145 10.2146C14.4918 9.66952 15.2076 9.39697 16.062 9.39697C16.9164 9.39697 17.6207 9.66952 18.1749 10.2146C18.7521 10.737 19.0408 11.3956 19.0408 12.1905C19.0408 12.9855 18.7521 13.6555 18.1749 14.2006C17.6207 14.7229 16.9164 14.9841 16.062 14.9841ZM18.4519 17.2326V36.1062H13.6028V17.2326H18.4519Z" fill="white"/>
<path d="M33.8764 16.9601C36.1625 16.9601 38.0097 17.6755 39.4183 19.1063C40.8269 20.5145 41.5312 22.4904 41.5312 25.0342V36.1062H36.682V25.6814C36.682 24.1825 36.301 23.0355 35.539 22.2406C34.777 21.423 33.7379 21.0141 32.4217 21.0141C31.0824 21.0141 30.0202 21.423 29.2351 22.2406C28.4731 23.0355 28.0921 24.1825 28.0921 25.6814V36.1062H23.2429V17.2326H28.0921V19.5833C28.7386 18.7657 29.5584 18.1297 30.5513 17.6755C31.5673 17.1985 32.6757 16.9601 33.8764 16.9601Z" fill="white"/>
<path d="M50.9916 19.9921C51.6151 19.0836 52.4694 18.3455 53.5547 17.7777C54.6631 17.2099 55.9216 16.926 57.3301 16.926C58.9696 16.926 60.4474 17.3234 61.7636 18.1184C63.1029 18.9133 64.1536 20.0489 64.9156 21.5252C65.7007 22.9787 66.0932 24.6708 66.0932 26.6013C66.0932 28.5318 65.7007 30.2465 64.9156 31.7455C64.1536 33.2218 63.1029 34.3688 61.7636 35.1864C60.4474 36.004 58.9696 36.4128 57.3301 36.4128C55.8985 36.4128 54.64 36.1403 53.5547 35.5952C52.4925 35.0274 51.6382 34.3006 50.9916 33.4149V36.1062H46.1424V10.896H50.9916V19.9921ZM61.1402 26.6013C61.1402 25.4657 60.8977 24.4891 60.4128 23.6714C59.951 22.8311 59.3275 22.1952 58.5424 21.7636C57.7804 21.3321 56.9491 21.1163 56.0486 21.1163C55.1711 21.1163 54.3398 21.3435 53.5547 21.7977C52.7927 22.2292 52.1693 22.8652 51.6843 23.7055C51.2225 24.5458 50.9916 25.5338 50.9916 26.6694C50.9916 27.805 51.2225 28.793 51.6843 29.6333C52.1693 30.4737 52.7927 31.121 53.5547 31.5752C54.3398 32.0067 55.1711 32.2225 56.0486 32.2225C56.9491 32.2225 57.7804 31.9954 58.5424 31.5411C59.3275 31.0869 59.951 30.4396 60.4128 29.5993C60.8977 28.7589 61.1402 27.7596 61.1402 26.6013Z" fill="white"/>
<path d="M87.455 26.2606C87.455 26.942 87.4088 27.5552 87.3164 28.1003H73.2885C73.404 29.463 73.8889 30.5304 74.7433 31.3027C75.5976 32.0749 76.6483 32.461 77.8952 32.461C79.6963 32.461 80.9779 31.7001 81.7399 30.1784H86.9701C86.4159 31.9954 85.3537 33.4944 83.7835 34.6754C82.2133 35.8337 80.2851 36.4128 77.9991 36.4128C76.1518 36.4128 74.4893 36.0154 73.0114 35.2205C71.5567 34.4028 70.4137 33.2559 69.5824 31.7796C68.7742 30.3033 68.3701 28.5999 68.3701 26.6694C68.3701 24.7162 68.7742 23.0014 69.5824 21.5252C70.3906 20.0489 71.522 18.9133 72.9768 18.1184C74.4315 17.3234 76.1056 16.926 77.9991 16.926C79.8233 16.926 81.4513 17.3121 82.8829 18.0843C84.3377 18.8565 85.4576 19.958 86.2427 21.3889C87.0509 22.797 87.455 24.4209 87.455 26.2606ZM82.4326 24.8979C82.4095 23.6714 81.9593 22.6948 81.0818 21.968C80.2043 21.2185 79.1306 20.8438 77.8606 20.8438C76.6598 20.8438 75.6438 21.2072 74.8125 21.934C74.0043 22.638 73.5079 23.626 73.3232 24.8979H82.4326Z" fill="white"/>
<path d="M98.3374 36.4128C96.7672 36.4128 95.3587 36.1403 94.1117 35.5952C92.8648 35.0274 91.8719 34.2666 91.133 33.3127C90.4171 32.3588 90.0246 31.3027 89.9553 30.1443H94.8391C94.9315 30.8711 95.2894 31.473 95.9128 31.9499C96.5594 32.4269 97.356 32.6654 98.3028 32.6654C99.2264 32.6654 99.9423 32.4837 100.45 32.1203C100.981 31.7569 101.247 31.2913 101.247 30.7235C101.247 30.1103 100.924 29.656 100.277 29.3608C99.6536 29.0428 98.6491 28.7021 97.2637 28.3387C95.832 27.9981 94.6544 27.646 93.7307 27.2826C92.8302 26.9192 92.0451 26.3628 91.3754 25.6133C90.7289 24.8638 90.4056 23.8531 90.4056 22.5813C90.4056 21.5365 90.7058 20.5826 91.3061 19.7196C91.9296 18.8565 92.8071 18.1751 93.9385 17.6755C95.0931 17.1758 96.4439 16.926 97.991 16.926C100.277 16.926 102.101 17.4938 103.464 18.6294C104.826 19.7423 105.576 21.2526 105.715 23.1604H101.074C101.004 22.4109 100.681 21.8204 100.104 21.3889C99.5497 20.9346 98.7992 20.7075 97.8525 20.7075C96.975 20.7075 96.2938 20.8665 95.8089 21.1845C95.3471 21.5024 95.1162 21.9453 95.1162 22.5131C95.1162 23.1491 95.4395 23.6374 96.086 23.9781C96.7326 24.296 97.737 24.6253 99.0994 24.966C100.485 25.3067 101.628 25.6587 102.528 26.0221C103.429 26.3855 104.203 26.9533 104.849 27.7255C105.519 28.475 105.865 29.4743 105.888 30.7235C105.888 31.8137 105.577 32.7903 104.953 33.6533C104.353 34.5164 103.475 35.1978 102.321 35.6974C101.189 36.1744 99.8614 36.4128 98.3374 36.4128Z" fill="white"/>
<path d="M115.515 21.1504V30.2806C115.515 30.9166 115.665 31.3821 115.965 31.6774C116.288 31.9499 116.819 32.0862 117.558 32.0862H119.81V36.1062H116.761C112.674 36.1062 110.631 34.153 110.631 30.2466V21.1504H108.345V17.2326H110.631V12.5653H115.515V17.2326H119.81V21.1504H115.515Z" fill="white"/>
<path d="M130.381 7.80438L148 0V5.18078L130.381 12.9852V7.80438Z" fill="#A5DFDC"/>
<rect x="130.381" y="12.9858" width="17.619" height="4.583" fill="#A5DFDC"/>
</svg>
