<?xml version="1.0" encoding="UTF-8" standalone="no"?><svg width="16" height="20" viewBox="0 0 16 20" fill="none" xmlns="http://www.w3.org/2000/svg">
<path d="M10.8815 3.15451C10.1836 3.98097 9.06681 4.63282 7.95006 4.5397C7.81046 3.42223 8.35721 2.23493 8.99701 1.50159C9.69499 0.651854 10.9164 0.046561 11.9052 0C12.0216 1.16403 11.5679 2.30477 10.8815 3.15451ZM11.8936 4.76086C10.2766 4.66774 8.89232 5.68044 8.12455 5.68044C7.34515 5.68044 6.17023 4.80742 4.89061 4.8307C3.22711 4.85399 1.67994 5.79685 0.830743 7.29844C-0.914187 10.3016 0.377062 14.7482 2.06383 17.1927C2.88976 18.4032 3.87855 19.7302 5.18143 19.6837C6.41452 19.6371 6.9031 18.8805 8.39211 18.8805C9.89275 18.8805 10.3232 19.6837 11.626 19.6604C12.9755 19.6371 13.8247 18.4498 14.6506 17.2392C15.5928 15.8657 15.9767 14.527 16 14.4572C15.9767 14.4339 13.3942 13.4445 13.371 10.4646C13.3477 7.97357 15.4067 6.78627 15.4998 6.71643C14.3365 4.99367 12.5218 4.80742 11.8936 4.76086Z" fill="white"/>
</svg>
