<?xml version="1.0" encoding="UTF-8" standalone="no"?><svg width="20" height="21" viewBox="0 0 20 21" fill="none" xmlns="http://www.w3.org/2000/svg">
<path d="M15.34 3.87211C15.1027 3.87211 14.8707 3.94249 14.6733 4.07435C14.476 4.2062 14.3222 4.39362 14.2313 4.61289C14.1405 4.83216 14.1168 5.07344 14.1631 5.30622C14.2094 5.53899 14.3236 5.75281 14.4915 5.92064C14.6593 6.08846 14.8731 6.20275 15.1059 6.24905C15.3387 6.29535 15.5799 6.27159 15.7992 6.18076C16.0185 6.08994 16.2059 5.93613 16.3378 5.73879C16.4696 5.54145 16.54 5.30945 16.54 5.07211C16.54 4.75385 16.4136 4.44863 16.1885 4.22358C15.9635 3.99854 15.6583 3.87211 15.34 3.87211ZM19.94 6.29211C19.9206 5.46241 19.7652 4.64151 19.48 3.86211C19.2257 3.19524 18.83 2.59139 18.32 2.09211C17.8248 1.57954 17.2196 1.18629 16.55 0.942109C15.7727 0.64827 14.9508 0.489319 14.12 0.472109C13.06 0.412109 12.72 0.412109 10 0.412109C7.28 0.412109 6.94 0.412109 5.88 0.472109C5.04915 0.489319 4.22734 0.64827 3.45 0.942109C2.78168 1.18876 2.17693 1.58167 1.68 2.09211C1.16743 2.58729 0.774176 3.19255 0.53 3.86211C0.236161 4.63945 0.07721 5.46126 0.0599999 6.29211C-5.58794e-08 7.35211 0 7.69211 0 10.4121C0 13.1321 -5.58794e-08 13.4721 0.0599999 14.5321C0.07721 15.363 0.236161 16.1848 0.53 16.9621C0.774176 17.6317 1.16743 18.2369 1.68 18.7321C2.17693 19.2425 2.78168 19.6355 3.45 19.8821C4.22734 20.1759 5.04915 20.3349 5.88 20.3521C6.94 20.4121 7.28 20.4121 10 20.4121C12.72 20.4121 13.06 20.4121 14.12 20.3521C14.9508 20.3349 15.7727 20.1759 16.55 19.8821C17.2196 19.6379 17.8248 19.2447 18.32 18.7321C18.8322 18.2347 19.2283 17.6303 19.48 16.9621C19.7652 16.1827 19.9206 15.3618 19.94 14.5321C19.94 13.4721 20 13.1321 20 10.4121C20 7.69211 20 7.35211 19.94 6.29211ZM18.14 14.4121C18.1327 15.0469 18.0178 15.6758 17.8 16.2721C17.6403 16.7073 17.3839 17.1005 17.05 17.4221C16.7256 17.7526 16.3332 18.0085 15.9 18.1721C15.3037 18.3899 14.6748 18.5048 14.04 18.5121C13.04 18.5621 12.67 18.5721 10.04 18.5721C7.41 18.5721 7.04 18.5721 6.04 18.5121C5.38089 18.5245 4.72459 18.423 4.1 18.2121C3.68578 18.0402 3.31136 17.7849 3 17.4621C2.66809 17.1409 2.41484 16.7473 2.26 16.3121C2.01586 15.7073 1.88044 15.0641 1.86 14.4121C1.86 13.4121 1.8 13.0421 1.8 10.4121C1.8 7.78211 1.8 7.41211 1.86 6.41211C1.86448 5.76316 1.98295 5.12005 2.21 4.51211C2.38605 4.09002 2.65627 3.71377 3 3.41211C3.30381 3.06828 3.67929 2.79521 4.1 2.61211C4.70955 2.39215 5.352 2.27719 6 2.27211C7 2.27211 7.37 2.21211 10 2.21211C12.63 2.21211 13 2.21211 14 2.27211C14.6348 2.27939 15.2637 2.39436 15.86 2.61211C16.3144 2.78076 16.7223 3.05496 17.05 3.41211C17.3777 3.71929 17.6338 4.09484 17.8 4.51211C18.0223 5.12104 18.1373 5.76389 18.14 6.41211C18.19 7.41211 18.2 7.78211 18.2 10.4121C18.2 13.0421 18.19 13.4121 18.14 14.4121ZM10 5.28211C8.98581 5.28409 7.99496 5.58664 7.15265 6.15153C6.31035 6.71642 5.65438 7.51831 5.26763 8.45586C4.88089 9.39342 4.78072 10.4246 4.97979 11.419C5.17886 12.4135 5.66824 13.3266 6.38608 14.0431C7.10392 14.7595 8.01801 15.2471 9.01286 15.4443C10.0077 15.6414 11.0387 15.5392 11.9755 15.1506C12.9123 14.7621 13.7129 14.1045 14.2761 13.2611C14.8394 12.4177 15.14 11.4263 15.14 10.4121C15.1413 9.73721 15.0092 9.06872 14.7512 8.44507C14.4933 7.82141 14.1146 7.25492 13.6369 6.77816C13.1592 6.3014 12.5919 5.92379 11.9678 5.66704C11.3436 5.41029 10.6749 5.27947 10 5.28211ZM10 13.7421C9.34139 13.7421 8.69757 13.5468 8.14995 13.1809C7.60234 12.815 7.17552 12.2949 6.92348 11.6864C6.67144 11.078 6.6055 10.4084 6.73398 9.76246C6.86247 9.1165 7.17963 8.52315 7.64533 8.05744C8.11104 7.59173 8.70439 7.27458 9.35035 7.14609C9.99631 7.01761 10.6659 7.08355 11.2743 7.33559C11.8828 7.58763 12.4029 8.01444 12.7688 8.56206C13.1347 9.10968 13.33 9.7535 13.33 10.4121C13.33 10.8494 13.2439 11.2824 13.0765 11.6864C12.9092 12.0905 12.6639 12.4576 12.3547 12.7668C12.0454 13.076 11.6784 13.3213 11.2743 13.4886C10.8703 13.656 10.4373 13.7421 10 13.7421Z" fill="white"/>
</svg>
