<?xml version="1.0" encoding="UTF-8" standalone="no"?><svg width="18" height="20" viewBox="0 0 18 20" fill="none" xmlns="http://www.w3.org/2000/svg">
<path d="M1.78519 6.49486C1.44101 6.49486 1.14899 6.61488 0.908938 6.85493C0.668889 7.09498 0.548828 7.38303 0.548828 7.71923V12.8812C0.548828 13.2258 0.668853 13.5176 0.908938 13.7577C1.14899 13.9977 1.44101 14.1178 1.78519 14.1178C2.12912 14.1178 2.41938 13.9978 2.65571 13.7577C2.89156 13.5176 3.00982 13.2258 3.00982 12.8812V7.71923C3.00982 7.383 2.88979 7.09498 2.64971 6.85493C2.40962 6.61488 2.12139 6.49486 1.78519 6.49486ZM11.7252 1.86097L12.5775 0.288619C12.6335 0.184523 12.6136 0.104699 12.5176 0.0485699C12.4135 0.000169966 12.3335 0.024695 12.2776 0.120411L11.4133 1.70533C10.6528 1.36909 9.84848 1.20067 9.00028 1.20067C8.15191 1.20067 7.3475 1.36913 6.5873 1.70533L5.723 0.120411C5.66683 0.024695 5.58683 0.000386685 5.48295 0.0485699C5.3868 0.104952 5.3669 0.184523 5.42306 0.288619L6.27544 1.86097C5.41114 2.30173 4.72278 2.91558 4.21061 3.70385C3.69843 4.49255 3.44224 5.35443 3.44224 6.291H14.5463C14.5463 5.35464 14.29 4.49273 13.7779 3.70385C13.2657 2.91558 12.5813 2.30173 11.7252 1.86097ZM6.79729 4.14797C6.70512 4.24036 6.59503 4.28634 6.46705 4.28634C6.33883 4.28634 6.23098 4.24036 6.14299 4.14797C6.05501 4.05601 6.01101 3.94635 6.01101 3.81795C6.01101 3.68998 6.05501 3.5801 6.14299 3.48793C6.23098 3.39597 6.33908 3.34999 6.46705 3.34999C6.59503 3.34999 6.70512 3.39597 6.79729 3.48793C6.88925 3.58032 6.93545 3.68998 6.93545 3.81795C6.9352 3.94614 6.88904 4.05601 6.79729 4.14797ZM11.8571 4.14797C11.7689 4.24036 11.6608 4.28634 11.5331 4.28634C11.4048 4.28634 11.2948 4.24036 11.2028 4.14797C11.1106 4.05601 11.0646 3.94635 11.0646 3.81795C11.0646 3.68998 11.1106 3.5801 11.2028 3.48793C11.2948 3.39597 11.4048 3.34999 11.5331 3.34999C11.6611 3.34999 11.7689 3.39597 11.8571 3.48793C11.9452 3.58032 11.9891 3.68998 11.9891 3.81795C11.9891 3.94614 11.9451 4.05601 11.8571 4.14797ZM3.48992 14.7179C3.48992 15.0864 3.61789 15.3983 3.87387 15.6543C4.13006 15.9103 4.44199 16.0382 4.81022 16.0382H5.69862L5.71079 18.7636C5.71079 19.1077 5.83081 19.4 6.07086 19.6401C6.31091 19.8801 6.59918 20.0002 6.93516 20.0002C7.27913 20.0002 7.57133 19.8801 7.81142 19.6401C8.0515 19.4 8.17153 19.1078 8.17153 18.7636V16.0385H9.8281V18.7636C9.8281 19.1077 9.94809 19.4 10.1882 19.6401C10.4283 19.8801 10.7202 20.0002 11.0644 20.0002C11.4084 20.0002 11.7006 19.8801 11.9407 19.6401C12.1808 19.4 12.3008 19.1078 12.3008 18.7636V16.0385H13.2011C13.5612 16.0385 13.8691 15.9105 14.1256 15.6545C14.3815 15.3985 14.5096 15.0866 14.5096 14.7182V6.72274H3.48992V14.7179ZM16.2149 6.49486C15.8787 6.49486 15.5907 6.61312 15.3506 6.84897C15.1105 7.08527 14.9905 7.37552 14.9905 7.71923V12.8812C14.9905 13.2258 15.1105 13.5176 15.3506 13.7577C15.5907 13.9978 15.8789 14.1178 16.2149 14.1178C16.5589 14.1178 16.8511 13.9978 17.0912 13.7577C17.3312 13.5176 17.4512 13.2258 17.4512 12.8812V7.71923C17.4512 7.37549 17.3312 7.08527 17.0912 6.84897C16.8511 6.61312 16.5589 6.49486 16.2149 6.49486Z" fill="white"/>
</svg>
